<svg width="432" height="432" viewBox="0 0 432 432" fill="none" xmlns="http://www.w3.org/2000/svg">
<rect width="432" height="432" rx="216" fill="#333333"/>
<path d="M333.447 231.367C246.394 215.021 225.488 136.712 223.207 131.961C220.926 127.21 215.224 128.35 215.224 128.35H188.852L186.322 124.688C185.047 122.842 184.392 122.812 183.131 122.812H149.488C148.228 122.812 147.27 123.853 146.904 125.094L146.065 128.349H119.427C114.865 128.349 112.963 135.571 112.963 135.571L95.4786 183.09V245.433C95.4786 254.937 112.963 268.622 112.963 268.622H332.687C335.347 268.622 335.347 264.82 335.347 264.82V233.269C335.347 230.988 333.447 231.367 333.447 231.367ZM116.744 230.653C111.692 230.653 107.598 226.559 107.598 221.507C107.598 216.455 111.692 212.362 116.744 212.362C121.794 212.362 125.89 216.455 125.89 221.507C125.89 226.559 121.794 230.653 116.744 230.653ZM107.262 176.626C107.262 176.626 104.224 174.885 105.743 170.925L118.288 138.232C118.288 138.232 119.047 136.712 121.328 136.712H161.437L154.381 176.626L107.262 176.626ZM204.938 230.653C199.886 230.653 195.792 226.559 195.792 221.507C195.792 216.455 199.886 212.362 204.938 212.362C209.988 212.362 214.083 216.455 214.083 221.507C214.083 226.559 209.988 230.653 204.938 230.653ZM222.445 174.345C222.445 174.345 221.304 176.626 218.265 176.626H161.379L168.433 136.712H210.28C210.28 136.712 213.321 136.333 213.702 138.232C214.083 140.133 222.444 165.223 222.444 165.223V174.345H222.445ZM253.807 232.11C247.784 228.939 241.887 225.317 236.322 221.146V177.05C236.322 177.05 241.724 186.229 253.807 197.467V232.11ZM273.575 240.869C268.53 239.005 263.425 236.867 258.368 234.419V201.528C262.72 205.224 267.795 209.04 273.575 212.755V240.869ZM292.635 246.841C287.751 245.568 282.915 244.116 278.137 242.488V215.569C282.829 218.349 287.669 220.871 292.635 223.123V246.841ZM308.222 250.331C304.254 249.587 300.306 248.738 296.383 247.785V224.75C300.269 226.393 304.218 227.882 308.222 229.211V250.331ZM322.105 252.502C318.469 252.05 314.844 251.507 311.234 250.876V230.148C314.824 231.258 318.449 232.248 322.105 233.115V252.502ZM332.118 253.458C332.118 253.458 329.175 253.315 324.201 252.752V233.604C326.783 234.182 329.404 234.733 332.118 235.212V253.458ZM199.829 296.02H136.534V284.589H113.156V296.02H95.4792V307.398H239.173C239.173 307.398 250.764 290.861 335.348 290.861V284.588H199.829V296.02Z" fill="white"/>
</svg>
