<svg width="432" height="432" viewBox="0 0 432 432" fill="none" xmlns="http://www.w3.org/2000/svg">
<rect width="432" height="432" rx="216" fill="white"/>
<path d="M334.447 231.367C247.394 215.021 226.488 136.712 224.207 131.961C221.926 127.21 216.224 128.35 216.224 128.35H189.852L187.322 124.688C186.047 122.842 185.392 122.812 184.131 122.812H150.488C149.228 122.812 148.27 123.853 147.904 125.094L147.065 128.349H120.427C115.865 128.349 113.963 135.571 113.963 135.571L96.4786 183.09V245.433C96.4786 254.937 113.963 268.622 113.963 268.622H333.687C336.347 268.622 336.347 264.82 336.347 264.82V233.269C336.347 230.988 334.447 231.367 334.447 231.367ZM117.744 230.653C112.692 230.653 108.598 226.559 108.598 221.507C108.598 216.455 112.692 212.362 117.744 212.362C122.794 212.362 126.89 216.455 126.89 221.507C126.89 226.559 122.794 230.653 117.744 230.653ZM108.262 176.626C108.262 176.626 105.224 174.885 106.743 170.925L119.288 138.232C119.288 138.232 120.047 136.712 122.328 136.712H162.437L155.381 176.626L108.262 176.626ZM205.938 230.653C200.886 230.653 196.792 226.559 196.792 221.507C196.792 216.455 200.886 212.362 205.938 212.362C210.988 212.362 215.083 216.455 215.083 221.507C215.083 226.559 210.988 230.653 205.938 230.653ZM223.445 174.345C223.445 174.345 222.304 176.626 219.265 176.626H162.379L169.433 136.712H211.28C211.28 136.712 214.321 136.333 214.702 138.232C215.083 140.133 223.444 165.223 223.444 165.223V174.345H223.445ZM254.807 232.11C248.784 228.939 242.887 225.317 237.322 221.146V177.05C237.322 177.05 242.724 186.229 254.807 197.467V232.11ZM274.575 240.869C269.53 239.005 264.425 236.867 259.368 234.419V201.528C263.72 205.224 268.795 209.04 274.575 212.755V240.869ZM293.635 246.841C288.751 245.568 283.915 244.116 279.137 242.488V215.569C283.829 218.349 288.669 220.871 293.635 223.123V246.841ZM309.222 250.331C305.254 249.587 301.306 248.738 297.383 247.785V224.75C301.269 226.393 305.218 227.882 309.222 229.211V250.331ZM323.105 252.502C319.469 252.05 315.844 251.507 312.234 250.876V230.148C315.824 231.258 319.449 232.248 323.105 233.115V252.502ZM333.118 253.458C333.118 253.458 330.175 253.315 325.201 252.752V233.604C327.783 234.182 330.404 234.733 333.118 235.212V253.458ZM200.829 296.02H137.534V284.589H114.156V296.02H96.4792V307.398H240.173C240.173 307.398 251.764 290.861 336.348 290.861V284.588H200.829V296.02Z" fill="#333333"/>
</svg>
